<svg
                            width="224"
                            height="48"
                            viewBox="0 0 224 48"
                            fill="none"
                            xmlns="http://www.w3.org/2000/svg"
                        >
                            <g clip-path="url(#clip0)">
                                <path
                                    d="M157.531 40.6L149.345 39.88L144.802 44.875V30.625L157.531 40.6Z"
                                    fill="#00BCD4"
                                />
                                <path
                                    d="M153.615 26.875H117.385C115.221 26.875 113.469 25.5325 113.469 23.875V14.125C113.469 12.4675 115.221 11.125 117.385 11.125H153.615C155.779 11.125 157.531 12.4675 157.531 14.125V23.875C157.531 25.5325 155.779 26.875 153.615 26.875Z"
                                    fill="#CFD8DC"
                                />
                                <path
                                    d="M153.615 28H150.677C149.866 28 149.208 27.496 149.208 26.875C149.208 26.254 149.866 25.75 150.677 25.75H153.615C154.964 25.75 156.063 24.9085 156.063 23.875V14.125C156.063 13.0915 154.964 12.25 153.615 12.25H117.385C116.036 12.25 114.938 13.0915 114.938 14.125V23.875C114.938 24.9085 116.036 25.75 117.385 25.75H137.948C138.759 25.75 139.417 26.254 139.417 26.875C139.417 27.496 138.759 28 137.948 28H117.385C114.415 28 112 26.1505 112 23.875V14.125C112 11.8495 114.415 10 117.385 10H153.615C156.585 10 159 11.8495 159 14.125V23.875C159 26.1505 156.585 28 153.615 28Z"
                                    fill="black"
                                />
                                <path
                                    d="M133.052 20.875H128.156C127.345 20.875 126.688 20.371 126.688 19.75C126.688 19.129 127.345 18.625 128.156 18.625H133.052C133.863 18.625 134.521 19.129 134.521 19.75C134.521 20.371 133.863 20.875 133.052 20.875Z"
                                    fill="black"
                                />
                                <path
                                    d="M133.052 23.5C132.241 23.5 131.583 22.996 131.583 22.375V15.625C131.583 15.004 132.241 14.5 133.052 14.5C133.863 14.5 134.521 15.004 134.521 15.625V22.375C134.521 22.996 133.863 23.5 133.052 23.5Z"
                                    fill="black"
                                />
                                <path
                                    d="M128.156 23.5C127.346 23.5 126.688 22.996 126.688 22.375V15.625C126.688 15.004 127.346 14.5 128.156 14.5C128.967 14.5 129.625 15.004 129.625 15.625V22.375C129.625 22.996 128.967 23.5 128.156 23.5Z"
                                    fill="black"
                                />
                                <path
                                    d="M140.885 23.5H139.906C138.016 23.5 136.479 22.3225 136.479 20.875V17.125C136.479 15.6775 138.016 14.5 139.906 14.5H140.885C142.775 14.5 144.312 15.6775 144.312 17.125V20.875C144.312 22.3225 142.775 23.5 140.885 23.5ZM139.906 16.75C139.636 16.75 139.417 16.918 139.417 17.125V20.875C139.417 21.082 139.636 21.25 139.906 21.25H140.885C141.156 21.25 141.375 21.082 141.375 20.875V17.125C141.375 16.918 141.156 16.75 140.885 16.75H139.906Z"
                                    fill="black"
                                />
                                <path
                                    d="M121.22 23.5H118.365C117.554 23.5 116.896 22.996 116.896 22.375C116.896 21.754 117.554 21.25 118.365 21.25H121.22C121.529 21.25 121.792 20.992 121.792 20.6875C121.792 20.383 121.529 20.125 121.22 20.125H120.405C118.47 20.125 116.896 18.8635 116.896 17.3125C116.896 15.7615 118.47 14.5 120.405 14.5H123.26C124.071 14.5 124.729 15.004 124.729 15.625C124.729 16.246 124.071 16.75 123.26 16.75H120.405C120.096 16.75 119.833 17.008 119.833 17.3125C119.833 17.617 120.096 17.875 120.405 17.875H121.22C123.155 17.875 124.729 19.1365 124.729 20.6875C124.729 22.2385 123.155 23.5 121.22 23.5Z"
                                    fill="black"
                                />
                                <path
                                    d="M147.74 23.5C146.929 23.5 146.271 22.996 146.271 22.375V15.625C146.271 15.004 146.929 14.5 147.74 14.5H150.188C152.348 14.5 154.104 15.8455 154.104 17.5C154.104 19.1545 152.348 20.5 150.188 20.5H149.208V22.375C149.208 22.996 148.55 23.5 147.74 23.5ZM149.208 18.25H150.188C150.726 18.25 151.167 17.914 151.167 17.5C151.167 17.086 150.726 16.75 150.188 16.75H149.208V18.25Z"
                                    fill="black"
                                />
                                <path
                                    d="M144.802 46C144.655 46 144.508 45.9835 144.361 45.9475C143.75 45.8005 143.333 45.367 143.333 44.875V30.625C143.333 30.1675 143.696 29.755 144.248 29.584C144.796 29.41 145.435 29.512 145.852 29.839L158.581 39.814C159.016 40.1545 159.123 40.6675 158.851 41.095C158.579 41.5225 157.974 41.773 157.365 41.719L150.052 41.083L146.008 45.52C145.726 45.826 145.272 46 144.802 46V46ZM146.271 33.385V41.2975L148.143 39.2425C148.452 38.902 148.975 38.7145 149.514 38.7685L153.595 39.124L146.271 33.385Z"
                                    fill="black"
                                />
                            </g>
                            <g clip-path="url(#clip1)">
                                <path
                                    d="M57.8294 13.5168H93.1692V32.0148H57.8294V13.5168Z"
                                    fill="#EDEBFD"
                                />
                                <path
                                    d="M89.5134 13.5168H93.1693V32.0148H89.5134V13.5168Z"
                                    fill="#D2D2FC"
                                />
                                <path
                                    d="M91.3413 36.6393H59.6573C58.6477 36.6393 57.8294 35.8628 57.8294 34.9051V32.0148H93.1692V34.9051C93.1692 35.8628 92.3508 36.6393 91.3413 36.6393Z"
                                    fill="#595965"
                                />
                                <path
                                    d="M93.1693 32.0148V34.9051C93.1693 35.8625 92.3505 36.6393 91.3413 36.6393H87.6855C88.6947 36.6393 89.5134 35.8625 89.5134 34.9051V32.0148H93.1693Z"
                                    fill="#44454E"
                                />
                                <path
                                    d="M60.2666 13.5168H90.732V29.7026H60.2666V13.5168Z"
                                    fill="#C8EFFD"
                                />
                                <path
                                    d="M87.0762 13.5168H90.732V29.7026H87.0762V13.5168Z"
                                    fill="#A0E1FD"
                                />
                                <path
                                    d="M82.2017 40.1077H68.7969L69.4062 36.6393H81.5924L82.2017 40.1077Z"
                                    fill="#595965"
                                />
                                <path
                                    d="M82.2017 40.1077H79.1552L78.5459 36.6393H81.5924L82.2017 40.1077Z"
                                    fill="#44454E"
                                />
                                <path
                                    d="M84.6389 42.4199H66.3597V41.1192C66.3597 40.5605 66.8371 40.1076 67.426 40.1076H83.5726C84.1615 40.1076 84.6389 40.5605 84.6389 41.1192V42.4199Z"
                                    fill="#595965"
                                />
                                <path
                                    d="M84.6389 41.1192V42.4199H80.9831V41.1192C80.9831 40.5607 80.5056 40.1076 79.9168 40.1076H83.5727C84.1614 40.1076 84.6389 40.5607 84.6389 41.1192Z"
                                    fill="#44454E"
                                />
                                <path
                                    d="M60.2666 18.1413C58.2532 18.1413 56.6108 16.5938 56.6108 14.6729V13.5168H63.9225V14.6729C63.9225 16.5885 62.2856 18.1413 60.2666 18.1413V18.1413Z"
                                    fill="#F1CC76"
                                />
                                <path
                                    d="M63.9225 13.5168V14.6729C63.9225 17.2085 61.149 18.8726 58.7433 17.827C60.0016 17.2793 60.8759 16.0726 60.8759 14.6729V13.5168H63.9225Z"
                                    fill="#EBB15D"
                                />
                                <path
                                    d="M67.5783 18.1413C65.5648 18.1413 63.9225 16.5938 63.9225 14.6729V13.5168H71.2342V14.6729C71.2342 16.5885 69.5973 18.1413 67.5783 18.1413Z"
                                    fill="#E48C9B"
                                />
                                <path
                                    d="M71.2342 13.5168V14.6729C71.2342 17.2085 68.4607 18.8726 66.055 17.827C67.3133 17.2793 68.1876 16.0726 68.1876 14.6729V13.5168H71.2342Z"
                                    fill="#CC5B6F"
                                />
                                <path
                                    d="M75.4993 18.1413C73.1503 18.1413 71.2342 16.3358 71.2342 14.0949V13.5168H79.7645V14.0949C79.7645 16.3297 77.8549 18.1413 75.4993 18.1413Z"
                                    fill="#F1CC76"
                                />
                                <path
                                    d="M79.7645 13.5168V14.0949C79.7645 16.9514 76.7397 18.8803 73.976 17.8754C75.5801 17.2937 76.7179 15.8204 76.7179 14.0949V13.5168H79.7645Z"
                                    fill="#EBB15D"
                                />
                                <path
                                    d="M83.4203 18.1413C81.4069 18.1413 79.7645 16.5938 79.7645 14.6729V13.5168H87.0762V14.6729C87.0762 16.5885 85.4393 18.1413 83.4203 18.1413Z"
                                    fill="#E48C9B"
                                />
                                <path
                                    d="M87.0762 13.5168V14.6729C87.0762 17.2085 84.3027 18.8726 81.8971 17.827C83.1553 17.2793 84.0296 16.0726 84.0296 14.6729V13.5168H87.0762Z"
                                    fill="#CC5B6F"
                                />
                                <path
                                    d="M90.732 18.1413C88.7186 18.1413 87.0762 16.5938 87.0762 14.6729V13.5168H94.3879V14.6729C94.3879 16.5885 92.751 18.1413 90.732 18.1413Z"
                                    fill="#F1CC76"
                                />
                                <path
                                    d="M94.3879 13.5168V14.6729C94.3879 17.2085 91.6144 18.8726 89.2088 17.827C90.467 17.2793 91.3413 16.0726 91.3413 14.6729V13.5168H94.3879Z"
                                    fill="#EBB15D"
                                />
                                <path
                                    d="M94.3879 13.5168H87.0762L85.8576 6.58008H91.0725C91.5965 6.58008 92.0626 6.89873 92.2287 7.37058L94.3879 13.5168Z"
                                    fill="#F1CC76"
                                />
                                <path
                                    d="M94.3879 13.5168H91.3413L89.1821 7.37058C89.0161 6.89873 88.5499 6.58008 88.0259 6.58008H91.0725C91.5965 6.58008 92.0626 6.89873 92.2286 7.37058L94.3879 13.5168Z"
                                    fill="#EBB15D"
                                />
                                <path
                                    d="M87.0762 13.5168H79.7645L79.1552 6.58008H85.8576L87.0762 13.5168Z"
                                    fill="#E48C9B"
                                />
                                <path
                                    d="M87.0762 13.5168H84.0296L82.811 6.58008H85.8576L87.0762 13.5168Z"
                                    fill="#CC5B6F"
                                />
                                <path
                                    d="M79.7645 13.5168H71.2342L71.8435 6.58008H79.1552L79.7645 13.5168Z"
                                    fill="#F1CC76"
                                />
                                <path
                                    d="M79.7645 13.5168H76.7179L76.1086 6.58008H79.1552L79.7645 13.5168Z"
                                    fill="#EBB15D"
                                />
                                <path
                                    d="M71.8435 6.58008L71.2342 13.5168H63.9225L65.1411 6.58008H71.8435Z"
                                    fill="#E48C9B"
                                />
                                <path
                                    d="M71.8435 6.58008L71.2342 13.5168H68.1876L68.7969 6.58008H71.8435Z"
                                    fill="#CC5B6F"
                                />
                                <path
                                    d="M65.1411 6.58014L63.9225 13.5169H56.6108L58.7701 7.37064C58.9361 6.8988 59.4022 6.58014 59.9262 6.58014H65.1411Z"
                                    fill="#F1CC76"
                                />
                                <path
                                    d="M65.1411 6.58008L63.9225 13.5168H60.8759L62.0945 6.58008H65.1411Z"
                                    fill="#EBB15D"
                                />
                                <path
                                    d="M70.0155 26.8123H65.1411L64.5318 23.3439H70.6249L70.0155 26.8123Z"
                                    fill="#F1CC76"
                                />
                                <path
                                    d="M70.6249 23.3439L70.0155 26.8123H68.1876L68.7969 23.3439H70.6249Z"
                                    fill="#EBB15D"
                                />
                                <path
                                    d="M81.8971 38.3735H69.1016L69.4062 36.6393H81.5924L81.8971 38.3735Z"
                                    fill="#44454E"
                                />
                                <path
                                    d="M94.9972 13.5182C94.9972 13.3835 95.1714 13.9201 92.8064 7.18924C92.5572 6.48003 91.8603 6.00342 91.0723 6.00342C80.9795 6.00342 65.8888 6.00342 59.9262 6.00342C59.1382 6.00342 58.4414 6.47996 58.1921 7.18924C55.7144 14.2412 56.0657 13.2389 56.0317 13.3389C55.99 13.46 56.0015 13.4236 56.0015 14.6743C56.0015 15.7742 56.467 16.7723 57.2201 17.5024V34.9065C57.2201 36.1815 58.3134 37.2188 59.6573 37.2188H68.687L68.2808 39.531H67.4261C66.5021 39.531 65.7505 40.2441 65.7505 41.1207V42.4213C65.7505 42.7405 66.0233 42.9994 66.3598 42.9994H84.639C84.9755 42.9994 85.2483 42.7405 85.2483 42.4213V41.1207C85.2483 40.2441 84.4967 39.531 83.5727 39.531H82.718L82.3119 37.2188H91.3415C92.6854 37.2188 93.7787 36.1815 93.7787 34.9065C93.7787 34.0763 93.7787 18.2682 93.7787 17.5024C94.5318 16.7723 94.9973 15.7741 94.9973 14.6743V13.5182H94.9972ZM91.6503 7.55479L93.5425 12.9402H87.5923L86.5769 7.15954H91.0723C91.335 7.15954 91.5672 7.31836 91.6503 7.55479ZM92.56 18.3296V31.4381H58.4387V18.3296C58.8176 18.5008 59.2272 18.6202 59.6573 18.6789V29.704C59.6573 30.0233 59.9301 30.2821 60.2666 30.2821H90.732C91.0685 30.2821 91.3413 30.0233 91.3413 29.704V18.6789C91.7714 18.6202 92.181 18.5008 92.56 18.3296V18.3296ZM57.2201 14.0963H63.3132V14.6743C63.3132 16.2681 61.9465 17.5647 60.2666 17.5647C58.5868 17.5647 57.2201 16.2681 57.2201 14.6743V14.0963ZM71.1812 7.15954L70.6735 12.9402H64.6417L65.6572 7.15954H71.1812ZM78.5945 7.15954L79.1022 12.9402H71.8964L72.4042 7.15954H78.5945ZM85.3413 7.15954L86.3568 12.9402H80.3251L79.8173 7.15954H85.3413ZM75.4993 17.5647C73.4834 17.5647 71.8435 16.0087 71.8435 14.0963H79.1552C79.1552 16.0087 77.5152 17.5647 75.4993 17.5647ZM64.5318 14.0963H70.6249V14.6743C70.6249 16.2681 69.2582 17.5647 67.5783 17.5647C65.8985 17.5647 64.5318 16.2681 64.5318 14.6743V14.0963ZM90.1227 29.1259H60.8759V18.6789C62.1683 18.5026 63.2752 17.7753 63.9225 16.7561C65.6431 19.4656 69.8184 19.348 71.3624 16.5379C73.2742 19.4431 77.7198 19.4501 79.6364 16.5379C81.1779 19.3437 85.3525 19.4705 87.0763 16.7561C87.7235 17.7752 88.8305 18.5026 90.1228 18.6789V29.1259H90.1227ZM83.4203 17.5647C81.7405 17.5647 80.3738 16.2681 80.3738 14.6743V14.0963H86.4669V14.6743C86.4669 16.2681 85.1001 17.5647 83.4203 17.5647ZM59.3483 7.55479C59.4313 7.31836 59.6636 7.15954 59.9263 7.15954H64.4218L63.4063 12.9402H57.4561L59.3483 7.55479ZM84.0296 41.1207V41.8432H66.969V41.1207C66.969 40.8816 67.174 40.6871 67.426 40.6871H83.5727C83.8246 40.6871 84.0296 40.8816 84.0296 41.1207ZM81.4824 39.531H69.5162L69.9224 37.2188H81.0762L81.4824 39.531ZM92.56 34.9065C92.56 35.544 92.0133 36.0626 91.3413 36.0626C89.4742 36.0626 61.5507 36.0626 59.6573 36.0626C58.9854 36.0626 58.4387 35.544 58.4387 34.9065V32.5943H92.56V34.9065ZM93.7786 14.6743C93.7786 16.2681 92.4119 17.5647 90.732 17.5647C89.0522 17.5647 87.6855 16.2681 87.6855 14.6743V14.0963H93.7786V14.6743Z"
                                    fill="black"
                                />
                                <path
                                    d="M74.89 20.4536C74.5535 20.4536 74.2807 20.7124 74.2807 21.0316C74.2807 21.3509 74.5535 21.6097 74.89 21.6097H87.6855C88.022 21.6097 88.2948 21.3509 88.2948 21.0316C88.2948 20.7124 88.022 20.4536 87.6855 20.4536H74.89Z"
                                    fill="black"
                                />
                                <path
                                    d="M87.6855 23.3439H74.89C74.5535 23.3439 74.2807 23.6027 74.2807 23.9219C74.2807 24.2412 74.5535 24.5 74.89 24.5H87.6855C88.022 24.5 88.2948 24.2412 88.2948 23.9219C88.2948 23.6027 88.022 23.3439 87.6855 23.3439V23.3439Z"
                                    fill="black"
                                />
                                <path
                                    d="M83.4203 26.2342H74.89C74.5535 26.2342 74.2807 26.493 74.2807 26.8122C74.2807 27.1315 74.5535 27.3903 74.89 27.3903H83.4203C83.7568 27.3903 84.0296 27.1315 84.0296 26.8122C84.0296 26.493 83.7568 26.2342 83.4203 26.2342Z"
                                    fill="black"
                                />
                                <path
                                    d="M71.2342 22.7658C70.8861 22.7658 70.2191 22.7658 69.882 22.7658L69.388 20.8914C69.3065 20.5817 68.9762 20.3934 68.6492 20.4708C68.3227 20.5483 68.1242 20.8621 68.2059 21.1719L68.6259 22.7659H66.5308L66.9509 21.1719C67.0325 20.8621 66.834 20.5483 66.5076 20.4708C66.1812 20.3935 65.8503 20.5817 65.7687 20.8914L65.2748 22.7658C64.9348 22.7658 64.2663 22.7658 63.9226 22.7658C63.5861 22.7658 63.3133 23.0246 63.3133 23.3438C63.3133 23.6631 63.5861 23.9219 63.9226 23.9219H64.0157L64.5402 26.9072C64.5892 27.1859 64.8433 27.3903 65.1412 27.3903H70.0157C70.3136 27.3903 70.5677 27.186 70.6168 26.9072L71.1413 23.9219H71.2343C71.5708 23.9219 71.8436 23.6631 71.8436 23.3438C71.8436 23.0246 71.5707 22.7658 71.2342 22.7658V22.7658ZM69.4993 26.2342H65.6572L65.251 23.9219H69.9056L69.4993 26.2342Z"
                                    fill="black"
                                />
                                <path
                                    d="M74.9364 34.5481C75.1278 34.9835 75.7449 35.0233 76.0057 34.6478C76.1959 34.3803 76.1116 34.0175 75.8374 33.8465C75.3479 33.5331 74.7039 34.0169 74.9364 34.5481V34.5481Z"
                                    fill="black"
                                />
                            </g>
                            <defs>
                                <clipPath id="clip0">
                                    <rect
                                        width="47"
                                        height="36"
                                        fill="white"
                                        transform="translate(112 10)"
                                    />
                                </clipPath>
                                <clipPath id="clip1">
                                    <rect
                                        width="39"
                                        height="37"
                                        fill="white"
                                        transform="translate(56 6)"
                                    />
                                </clipPath>
                            </defs>
                        </svg>