<svg id="Layer_1" enable-background="new 0 0 512.056 512.056" height="512" viewBox="0 0 512.056 512.056" width="512" xmlns="http://www.w3.org/2000/svg"><g><path d="m24.019 104.028h464v256h-464z" fill="#edebfd"/><path d="m440.019 104.028h48v256h-48z" fill="#d2d2fc"/><path d="m464.019 424.028h-416c-13.255 0-24-10.745-24-24v-40h464v40c0 13.255-10.746 24-24 24z" fill="#595965"/><path d="m488.019 360.028v40c0 13.25-10.75 24-24 24h-48c13.25 0 24-10.75 24-24v-40z" fill="#44454e"/><path d="m56.019 104.028h400v224h-400z" fill="#c8effd"/><path d="m408.019 104.028h48v224h-48z" fill="#a0e1fd"/><path d="m344.019 472.028h-176l8-48h160z" fill="#595965"/><path d="m344.019 472.028h-40l-8-48h40z" fill="#44454e"/><path d="m376.019 504.028h-240v-18c0-7.732 6.268-14 14-14h212c7.732 0 14 6.268 14 14z" fill="#595965"/><path d="m376.019 486.028v18h-48v-18c0-7.73-6.27-14-14-14h48c7.73 0 14 6.27 14 14z" fill="#44454e"/><path d="m56.019 168.028c-26.436 0-48-21.417-48-48v-16h96v16c0 26.51-21.491 48-48 48z" fill="#f1cc76"/><path d="m104.019 104.028v16c0 35.09-36.415 58.12-68 43.65 16.52-7.58 28-24.28 28-43.65v-16z" fill="#ebb15d"/><path d="m152.019 168.028c-26.436 0-48-21.417-48-48v-16h96v16c0 26.51-21.491 48-48 48z" fill="#e48c9b"/><path d="m200.019 104.028v16c0 35.09-36.415 58.12-68 43.65 16.52-7.58 28-24.28 28-43.65v-16z" fill="#cc5b6f"/><path d="m256.019 168.028c-30.842 0-56-24.987-56-56v-8h112v8c0 30.928-25.072 56-56 56z" fill="#f1cc76"/><path d="m312.019 104.028v8c0 39.532-39.714 66.227-76 52.32 21.06-8.05 36-28.44 36-52.32v-8z" fill="#ebb15d"/><path d="m360.019 168.028c-26.436 0-48-21.417-48-48v-16h96v16c0 26.51-21.491 48-48 48z" fill="#e48c9b"/><path d="m408.019 104.028v16c0 35.09-36.415 58.12-68 43.65 16.52-7.58 28-24.28 28-43.65v-16z" fill="#cc5b6f"/><path d="m456.019 168.028c-26.436 0-48-21.417-48-48v-16h96v16c0 26.51-21.491 48-48 48z" fill="#f1cc76"/><path d="m504.019 104.028v16c0 35.09-36.415 58.12-68 43.65 16.52-7.58 28-24.28 28-43.65v-16z" fill="#ebb15d"/><path d="m504.019 104.028h-96l-16-96h68.47c6.88 0 13 4.41 15.18 10.94z" fill="#f1cc76"/><path d="m504.019 104.028h-40l-28.35-85.06c-2.18-6.53-8.3-10.94-15.18-10.94h40c6.88 0 13 4.41 15.18 10.94z" fill="#ebb15d"/><path d="m408.019 104.028h-96l-8-96h88z" fill="#e48c9b"/><path d="m408.019 104.028h-40l-16-96h40z" fill="#cc5b6f"/><path d="m312.019 104.028h-112l8-96h96z" fill="#f1cc76"/><path d="m312.019 104.028h-40l-8-96h40z" fill="#ebb15d"/><path d="m208.019 8.028-8 96h-96l16-96z" fill="#e48c9b"/><path d="m208.019 8.028-8 96h-40l8-96z" fill="#cc5b6f"/><path d="m120.019 8.028-16 96h-96l28.35-85.06c2.18-6.53 8.3-10.94 15.18-10.94z" fill="#f1cc76"/><path d="m120.019 8.028-16 96h-40l16-96z" fill="#ebb15d"/><path d="m184.019 288.028h-64l-8-48h80z" fill="#f1cc76"/><path d="m192.019 240.028-8 48h-24l8-48z" fill="#ebb15d"/><path d="m340.019 448.028h-168l4-24h160z" fill="#44454e"/><path d="m512.019 104.028c0-1.865 2.287 5.562-28.764-87.589-3.272-9.815-12.422-16.411-22.769-16.411-132.514 0-330.65 0-408.936 0-10.347 0-19.496 6.595-22.769 16.411-32.531 97.594-27.918 83.724-28.365 85.107-.547 1.676-.397 1.172-.397 18.482 0 15.221 6.112 29.035 16 39.138v240.862c0 17.645 14.355 32 32 32h118.556l-5.333 32h-11.222c-12.131 0-22 9.869-22 22v18c0 4.418 3.582 8 8 8h240c4.418 0 8-3.582 8-8v-18c0-12.131-9.869-22-22-22h-11.222l-5.333-32h118.556c17.645 0 32-14.355 32-32 0-11.489 0-230.264 0-240.862 9.888-10.104 16-23.918 16-39.138v-16zm-43.944-82.53 24.844 74.53h-78.123l-13.333-80h59.024c3.449 0 6.498 2.198 7.588 5.47zm11.944 149.116v181.414h-448v-181.414c4.975 2.37 10.353 4.022 16 4.834v152.581c0 4.418 3.582 8 8 8h400c4.418 0 8-3.582 8-8v-152.581c5.647-.812 11.025-2.464 16-4.834zm-464-58.586h80v8c0 22.056-17.944 40-40 40s-40-17.944-40-40zm183.305-96-6.667 80h-79.195l13.333-80zm97.333 0 6.667 80h-94.61l6.667-80zm88.584 0 13.333 80h-79.194l-6.667-80zm-129.222 144c-26.468 0-48-21.533-48-48h96c0 26.467-21.533 48-48 48zm-144-48h80v8c0 22.056-17.944 40-40 40s-40-17.944-40-40zm336 208h-384v-144.58c16.968-2.439 31.502-12.505 40-26.61 22.591 37.498 77.411 35.871 97.683-3.019 25.102 40.205 83.471 40.303 108.635 0 20.24 38.83 75.051 40.584 97.683 3.019 8.498 14.104 23.032 24.171 40 26.61v144.58zm-88-160c-22.056 0-40-17.944-40-40v-8h80v8c0 22.056-17.945 40-40 40zm-316.057-138.53c1.09-3.272 4.14-5.47 7.589-5.47h59.024l-13.333 80h-78.124zm324.057 464.53v10h-224v-10c0-3.309 2.691-6 6-6h212c3.308 0 6 2.692 6 6zm-33.444-22h-157.113l5.334-32h146.445zm145.444-64c0 8.822-7.178 16-16 16-24.515 0-391.141 0-416 0-8.822 0-16-7.178-16-16v-32h448zm16-280c0 22.056-17.944 40-40 40s-40-17.944-40-40v-8h80z"/><path d="m248.019 200.028c-4.418 0-8 3.582-8 8s3.582 8 8 8h168c4.418 0 8-3.582 8-8s-3.582-8-8-8z"/><path d="m416.019 240.028h-168c-4.418 0-8 3.582-8 8s3.582 8 8 8h168c4.418 0 8-3.582 8-8s-3.582-8-8-8z"/><path d="m360.019 280.028h-112c-4.418 0-8 3.582-8 8s3.582 8 8 8h112c4.418 0 8-3.582 8-8s-3.582-8-8-8z"/><path d="m200.019 232.028c-4.57 0-13.328 0-17.754 0l-6.485-25.94c-1.07-4.286-5.407-6.892-9.701-5.821-4.286 1.072-6.893 5.415-5.82 9.702l5.515 22.06h-27.508l5.515-22.06c1.072-4.287-1.534-8.63-5.82-9.702-4.285-1.07-8.63 1.535-9.701 5.821l-6.485 25.94c-4.464 0-13.242 0-17.754 0-4.418 0-8 3.582-8 8s3.582 8 8 8h1.222l6.886 41.315c.644 3.857 3.98 6.685 7.892 6.685h64c3.911 0 7.248-2.827 7.892-6.685l6.886-41.315h1.222c4.418 0 8-3.582 8-8s-3.584-8-8.002-8zm-22.778 48h-50.445l-5.334-32h61.113z"/><path d="m248.628 395.088c2.513 6.025 10.615 6.576 14.04 1.38 2.497-3.703 1.39-8.723-2.21-11.09-6.427-4.338-14.882 2.358-11.83 9.71z"/></g></svg>