<svg id="Regular" height="512" viewBox="0 0 24 24" width="512" xmlns="http://www.w3.org/2000/svg"><path d="m23.25 20.4-4.18-.48-2.32 3.33v-9.5z" fill="#00bcd4"/><path d="m21.25 11.25h-18.5c-1.105 0-2-.895-2-2v-6.5c0-1.105.895-2 2-2h18.5c1.105 0 2 .895 2 2v6.5c0 1.105-.895 2-2 2z" fill="#cfd8dc"/><path d="m21.25 12h-1.5c-.414 0-.75-.336-.75-.75s.336-.75.75-.75h1.5c.689 0 1.25-.561 1.25-1.25v-6.5c0-.689-.561-1.25-1.25-1.25h-18.5c-.689 0-1.25.561-1.25 1.25v6.5c0 .689.561 1.25 1.25 1.25h10.5c.414 0 .75.336.75.75s-.336.75-.75.75h-10.5c-1.517 0-2.75-1.233-2.75-2.75v-6.5c0-1.517 1.233-2.75 2.75-2.75h18.5c1.517 0 2.75 1.233 2.75 2.75v6.5c0 1.517-1.233 2.75-2.75 2.75z"/><path d="m10.75 7.25h-2.5c-.414 0-.75-.336-.75-.75s.336-.75.75-.75h2.5c.414 0 .75.336.75.75s-.336.75-.75.75z"/><path d="m10.75 9c-.414 0-.75-.336-.75-.75v-4.5c0-.414.336-.75.75-.75s.75.336.75.75v4.5c0 .414-.336.75-.75.75z"/><path d="m8.25 9c-.414 0-.75-.336-.75-.75v-4.5c0-.414.336-.75.75-.75s.75.336.75.75v4.5c0 .414-.336.75-.75.75z"/><path d="m14.75 9h-.5c-.965 0-1.75-.785-1.75-1.75v-2.5c0-.965.785-1.75 1.75-1.75h.5c.965 0 1.75.785 1.75 1.75v2.5c0 .965-.785 1.75-1.75 1.75zm-.5-4.5c-.138 0-.25.112-.25.25v2.5c0 .138.112.25.25.25h.5c.138 0 .25-.112.25-.25v-2.5c0-.138-.112-.25-.25-.25z"/><path d="m4.708 9h-1.458c-.414 0-.75-.336-.75-.75s.336-.75.75-.75h1.458c.158 0 .292-.172.292-.375s-.134-.375-.292-.375h-.416c-.988 0-1.792-.841-1.792-1.875s.804-1.875 1.792-1.875h1.458c.414 0 .75.336.75.75s-.336.75-.75.75h-1.458c-.158 0-.292.172-.292.375s.134.375.292.375h.416c.988 0 1.792.841 1.792 1.875s-.804 1.875-1.792 1.875z"/><path d="m18.25 9c-.414 0-.75-.336-.75-.75v-4.5c0-.414.336-.75.75-.75h1.25c1.103 0 2 .897 2 2s-.897 2-2 2h-.5v1.25c0 .414-.336.75-.75.75zm.75-3.5h.5c.275 0 .5-.224.5-.5s-.225-.5-.5-.5h-.5z"/><path d="m16.75 24c-.075 0-.15-.011-.225-.035-.312-.098-.525-.387-.525-.715v-9.5c0-.305.185-.58.467-.694.28-.116.606-.048.819.17l6.5 6.65c.222.227.277.569.138.854s-.448.452-.759.416l-3.734-.424-2.065 2.958c-.144.204-.376.32-.616.32zm.75-8.41v5.275l.956-1.37c.158-.227.425-.352.7-.316l2.084.237z"/></svg>